<svg width="57" height="56" viewBox="0 0 57 56" fill="none" xmlns="http://www.w3.org/2000/svg">
<path d="M55.6112 41.3901L46.8101 21.2465C43.8295 14.4126 38.3464 14.137 34.6628 20.6403L29.3484 30.037C26.649 34.8042 21.6158 35.2175 18.1291 30.9463L17.5105 30.1748C13.8832 25.7106 8.76559 26.2618 6.15056 31.3597L1.31415 40.8666C-2.0882 47.4801 2.83256 55.2785 10.3683 55.2785H46.2477C53.5585 55.2785 58.4793 47.9761 55.6112 41.3901ZM14.2487 16.6998C16.486 16.6998 18.6316 15.8288 20.2136 14.2784C21.7956 12.7281 22.6843 10.6254 22.6843 8.43289C22.6843 6.24038 21.7956 4.13766 20.2136 2.58733C18.6316 1.03699 16.486 0.166016 14.2487 0.166016C12.0115 0.166016 9.86584 1.03699 8.28386 2.58733C6.70188 4.13766 5.81313 6.24038 5.81313 8.43289C5.81313 10.6254 6.70188 12.7281 8.28386 14.2784C9.86584 15.8288 12.0115 16.6998 14.2487 16.6998Z" fill="#0082B4"/>
</svg>
